<svg xmlns="http://www.w3.org/2000/svg" xmlns:xlink="http://www.w3.org/1999/xlink" viewBox="0 0 169.05 70.32"><defs><linearGradient id="ede3b28c-193d-4d86-81b0-e72bec162f4a" x1="20.62" y1="26.65" x2="149.95" y2="26.65" gradientUnits="userSpaceOnUse"><stop offset="0" stop-color="#00f282"/><stop offset="1" stop-color="#00ba8f"/></linearGradient><linearGradient id="e4d919c1-163b-4194-b32a-e0ec14596f54" x1="62.73" y1="8.69" x2="72.7" y2="8.69" xlink:href="#ede3b28c-193d-4d86-81b0-e72bec162f4a"/><linearGradient id="eec3989c-986d-4d9f-8d4e-cd9df10896e1" x1="128.81" y1="8.69" x2="138.78" y2="8.69" xlink:href="#ede3b28c-193d-4d86-81b0-e72bec162f4a"/><linearGradient id="b8fe887d-d223-4862-b323-9112cccd7ed3" x1="20.62" y1="62.52" x2="42.97" y2="62.52" xlink:href="#ede3b28c-193d-4d86-81b0-e72bec162f4a"/><linearGradient id="af2b9bd0-8f99-4f57-8505-5bef327c7121" x1="60.25" y1="62.52" x2="82.62" y2="62.52" xlink:href="#ede3b28c-193d-4d86-81b0-e72bec162f4a"/><linearGradient id="b6979fdf-aec1-4801-bcf4-5938c2e9d5a9" x1="86.69" y1="62.52" x2="109.05" y2="62.52" xlink:href="#ede3b28c-193d-4d86-81b0-e72bec162f4a"/><linearGradient id="bc58ba77-0dfc-43de-9263-c136a790f0f5" x1="126.33" y1="62.52" x2="148.69" y2="62.52" xlink:href="#ede3b28c-193d-4d86-81b0-e72bec162f4a"/></defs><title>condo</title><g id="e7266c55-88db-4f7e-8025-77c9f1af4815" data-name="Layer 2"><g id="f71e5d00-d1ff-44e1-8f65-c45f3c55ac5a" data-name="Layer 1"><polygon points="20.61 30.21 20.61 34.62 51.61 22 84.52 35.16 117.69 22 149.95 35.93 148.69 30.21 117.69 17.38 85.69 30.61 51.62 17.38 20.61 30.21" opacity="0.2" fill="url(#ede3b28c-193d-4d86-81b0-e72bec162f4a)"/><rect x="62.73" y="7.37" width="9.97" height="2.65" opacity="0.2" fill="url(#e4d919c1-163b-4194-b32a-e0ec14596f54)"/><rect x="128.81" y="7.37" width="9.97" height="2.65" opacity="0.2" fill="url(#eec3989c-986d-4d9f-8d4e-cd9df10896e1)"/><rect x="20.62" y="60.63" width="22.36" height="3.78" opacity="0.2" fill="url(#b8fe887d-d223-4862-b323-9112cccd7ed3)"/><rect x="60.25" y="60.63" width="22.36" height="3.78" opacity="0.2" fill="url(#af2b9bd0-8f99-4f57-8505-5bef327c7121)"/><rect x="86.69" y="60.63" width="22.36" height="3.78" opacity="0.2" fill="url(#b6979fdf-aec1-4801-bcf4-5938c2e9d5a9)"/><rect x="126.33" y="60.63" width="22.36" height="3.78" opacity="0.2" fill="url(#bc58ba77-0dfc-43de-9263-c136a790f0f5)"/><rect x="72.64" y="45.77" width="5.02" height="5.02" fill="none"/><rect x="72.64" y="38.34" width="5.02" height="5.02" fill="none"/><rect x="65.21" y="38.34" width="5.02" height="5.02" fill="none"/><rect x="33" y="38.34" width="5.02" height="5.02" fill="none"/><rect x="45.39" y="24.71" width="5.02" height="2.54" fill="none"/><rect x="33" y="45.77" width="5.02" height="5.02" fill="none"/><rect x="65.21" y="45.77" width="5.02" height="5.02" fill="none"/><rect x="45.39" y="29.67" width="5.02" height="2.54" fill="none"/><rect x="52.82" y="24.71" width="5.02" height="2.54" fill="none"/><rect x="52.82" y="29.67" width="5.02" height="2.54" fill="none"/><rect x="86.69" y="60.63" width="22.36" height="3.78" fill="none"/><polygon points="138.78 17.3 138.78 7.37 128.81 7.37 128.81 13.17 138.78 17.3" fill="none"/><rect x="25.57" y="38.34" width="5.02" height="5.02" fill="none"/><polygon points="72.7 17.3 72.7 7.37 62.73 7.37 62.73 13.17 72.7 17.3" fill="none"/><rect x="126.33" y="2.41" width="14.93" height="2.54" fill="none"/><rect x="60.25" y="2.41" width="14.93" height="2.54" fill="none"/><rect x="20.62" y="60.63" width="22.36" height="3.78" fill="none"/><rect x="60.25" y="60.63" width="22.36" height="3.78" fill="none"/><rect x="25.57" y="45.77" width="5.02" height="5.02" fill="none"/><path d="M45.39,64.41H57.84V44.53H45.39Zm8.7-11.15h1.24a1.21,1.21,0,0,1,0,2.42H54.09a1.21,1.21,0,0,1,0-2.42Z" fill="none"/><path d="M20.62,30.21v28H43V43.32a1.21,1.21,0,0,1,1.21-1.2H59.05a1.2,1.2,0,0,1,1.2,1.2v14.9H83.62V30.41l-32-13Zm19.85,23H23.12a1.21,1.21,0,0,1,0-2.41h0V37.13a1.2,1.2,0,0,1,1.2-1.2H39.23a1.2,1.2,0,0,1,1.2,1.2l0,13.66a1.21,1.21,0,0,1,0,2.41Zm22.29-2.41h0V37.13A1.21,1.21,0,0,1,64,35.93H78.86a1.21,1.21,0,0,1,1.21,1.2l0,13.66a1.21,1.21,0,1,1,0,2.41H62.76a1.21,1.21,0,1,1,0-2.41ZM60.25,23.5l0,8.71a1.21,1.21,0,1,1,0,2.41H42.94a1.21,1.21,0,0,1,0-2.41h0V23.5a1.21,1.21,0,0,1,1.21-1.2H59.05A1.2,1.2,0,0,1,60.25,23.5Z" fill="none"/><rect x="131.28" y="45.77" width="5.02" height="5.02" fill="none"/><rect x="118.9" y="29.67" width="5.02" height="2.54" fill="none"/><rect x="138.71" y="45.77" width="5.02" height="5.02" fill="none"/><rect x="138.71" y="38.34" width="5.02" height="5.02" fill="none"/><rect x="111.46" y="24.71" width="5.02" height="2.54" fill="none"/><rect x="131.28" y="38.34" width="5.02" height="5.02" fill="none"/><rect x="111.46" y="29.67" width="5.02" height="2.54" fill="none"/><path d="M152.41,25.55,117.69,11.18l-33,13.67h0l-.37.15v-.3L51.62,11.18,16.9,25.55v3.58L51.15,15a1.16,1.16,0,0,1,.93,0L84.65,28.44,117.23,15a1.13,1.13,0,0,1,.92,0l34.26,14.17Z" fill="none"/><path d="M85.69,30.61V58.22h23.36V43.32a1.2,1.2,0,0,1,1.2-1.2h14.87a1.21,1.21,0,0,1,1.21,1.2v14.9h22.36v-28l-31-12.83ZM106.54,53.2H89.2a1.21,1.21,0,1,1,0-2.41h0V37.13a1.21,1.21,0,0,1,1.21-1.2H105.3a1.21,1.21,0,0,1,1.21,1.2l0,13.66a1.21,1.21,0,1,1,0,2.41Zm22.3-2.41h0V37.13a1.21,1.21,0,0,1,1.21-1.2h14.86a1.21,1.21,0,0,1,1.21,1.2l0,13.66a1.21,1.21,0,1,1,0,2.41H128.84a1.21,1.21,0,1,1,0-2.41ZM126.33,23.5l0,8.71a1.21,1.21,0,0,1,0,2.41H109a1.21,1.21,0,1,1,0-2.41h0V23.5a1.2,1.2,0,0,1,1.2-1.2h14.87A1.21,1.21,0,0,1,126.33,23.5Z" fill="none"/><rect x="118.9" y="24.71" width="5.02" height="2.54" fill="none"/><rect x="126.33" y="60.63" width="22.36" height="3.78" fill="none"/><rect x="91.65" y="45.77" width="5.02" height="5.02" fill="none"/><path d="M111.46,64.41h12.46V44.53H111.46Zm8.71-11.15h1.23a1.21,1.21,0,0,1,0,2.42h-1.23a1.21,1.21,0,0,1,0-2.42Z" fill="none"/><rect x="91.65" y="38.34" width="5.02" height="5.02" fill="none"/><rect x="99.08" y="45.77" width="5.02" height="5.02" fill="none"/><rect x="99.08" y="38.34" width="5.02" height="5.02" fill="none"/><path d="M169.05,67.32q-8.87-3.7-18-6.58V31.2l2.06.85a1.2,1.2,0,0,0,1.66-1.11v-6.2a1.2,1.2,0,0,0-.75-1.11L141.19,18.3V7.37h1.27a1.21,1.21,0,0,0,1.21-1.21V1.21A1.21,1.21,0,0,0,142.46,0H125.12a1.21,1.21,0,0,0-1.2,1.21v5a1.21,1.21,0,0,0,1.2,1.21h1.27v4.8l-8.24-3.41a1.22,1.22,0,0,0-.92,0L84.65,22.25,75.12,18.3V7.37h1.27a1.21,1.21,0,0,0,1.2-1.21V1.21A1.21,1.21,0,0,0,76.39,0H59.05a1.21,1.21,0,0,0-1.21,1.21v5a1.21,1.21,0,0,0,1.21,1.21h1.27v4.8L52.07,8.76a1.22,1.22,0,0,0-.92,0L15.24,23.63a1.19,1.19,0,0,0-.76,1.11v6.2a1.21,1.21,0,0,0,1.67,1.11l2.05-.85V60.84Q9,63.78,0,67.55l1.16,2.77q8.41-3.54,17-6.33v1.63a1.21,1.21,0,0,0,1.21,1.21H83.82a1.21,1.21,0,0,0,.83-.34,1.25,1.25,0,0,0,.84.34H149.9a1.21,1.21,0,0,0,1.2-1.21V63.89c5.66,1.83,11.26,3.88,16.79,6.19ZM126.33,5V2.41h14.93V5Zm12.45,2.42V17.3l-10-4.13V7.37ZM60.25,5V2.41H75.18V5ZM72.7,7.37V17.3l-10-4.13V7.37ZM43,64.41H20.62V60.63H43Zm14.87,0H45.39V44.53H57.84Zm24.78,0H60.25V60.63H82.62Zm1-6.19H60.25V43.32a1.2,1.2,0,0,0-1.2-1.2H44.18A1.21,1.21,0,0,0,43,43.32v14.9H20.62v-28l31-12.83,32,13Zm25.43,6.19H86.69V60.63h22.36Zm14.87,0H111.46V44.53h12.46Zm24.77,0H126.33V60.63h22.36Zm0-6.19H126.33V43.32a1.21,1.21,0,0,0-1.21-1.2H110.25a1.2,1.2,0,0,0-1.2,1.2v14.9H85.69V30.61l32-13.23,31,12.83ZM118.15,15a1.13,1.13,0,0,0-.92,0L84.65,28.44,52.08,15a1.16,1.16,0,0,0-.93,0L16.9,29.13V25.55L51.62,11.18,84.28,24.7V25l.37-.15h0l33-13.67,34.72,14.37v3.58Z" fill="#22364c"/><path d="M62.76,53.2H80.1a1.21,1.21,0,1,0,0-2.41l0-13.66a1.21,1.21,0,0,0-1.21-1.2H64a1.21,1.21,0,0,0-1.21,1.2V50.79h0a1.21,1.21,0,1,0,0,2.41Zm9.88-14.86h5v5h-5Zm0,7.43h5v5h-5Zm-7.43-7.43h5v5h-5Zm0,7.43h5v5h-5Z" fill="#22364c"/><path d="M54.09,55.68h1.24a1.21,1.21,0,0,0,0-2.42H54.09a1.21,1.21,0,0,0,0,2.42Z" fill="#22364c"/><path d="M43,23.5v8.71h0a1.21,1.21,0,0,0,0,2.41H60.28a1.21,1.21,0,1,0,0-2.41l0-8.71a1.2,1.2,0,0,0-1.2-1.2H44.18A1.21,1.21,0,0,0,43,23.5Zm9.85,1.21h5v2.54h-5Zm0,5h5v2.54h-5Zm-7.43-5h5v2.54h-5Zm0,5h5v2.54h-5Z" fill="#22364c"/><path d="M40.47,50.79l0-13.66a1.2,1.2,0,0,0-1.2-1.2H24.36a1.2,1.2,0,0,0-1.2,1.2V50.79h0a1.21,1.21,0,0,0,0,2.41H40.47a1.21,1.21,0,0,0,0-2.41Zm-9.88,0h-5v-5h5Zm0-7.43h-5v-5h5ZM38,50.79H33v-5h5Zm0-7.43H33v-5h5Z" fill="#22364c"/><path d="M128.84,53.2h17.34a1.21,1.21,0,1,0,0-2.41l0-13.66a1.21,1.21,0,0,0-1.21-1.2H130.08a1.21,1.21,0,0,0-1.21,1.2V50.79h0a1.21,1.21,0,1,0,0,2.41Zm9.87-14.86h5v5h-5Zm0,7.43h5v5h-5Zm-7.43-7.43h5v5h-5Zm0,7.43h5v5h-5Z" fill="#22364c"/><path d="M120.17,55.68h1.23a1.21,1.21,0,0,0,0-2.42h-1.23a1.21,1.21,0,0,0,0,2.42Z" fill="#22364c"/><path d="M109.05,23.5v8.71h0a1.21,1.21,0,1,0,0,2.41h17.34a1.21,1.21,0,0,0,0-2.41l0-8.71a1.21,1.21,0,0,0-1.21-1.2H110.25A1.2,1.2,0,0,0,109.05,23.5Zm9.85,1.21h5v2.54h-5Zm0,5h5v2.54h-5Zm-7.44-5h5v2.54h-5Zm0,5h5v2.54h-5Z" fill="#22364c"/><path d="M106.54,50.79l0-13.66a1.21,1.21,0,0,0-1.21-1.2H90.44a1.21,1.21,0,0,0-1.21,1.2V50.79h0a1.21,1.21,0,1,0,0,2.41h17.34a1.21,1.21,0,1,0,0-2.41Zm-9.88,0h-5v-5h5Zm0-7.43h-5v-5h5Zm7.43,7.43h-5v-5h5Zm0-7.43h-5v-5h5Z" fill="#22364c"/></g></g></svg>