<svg xmlns="http://www.w3.org/2000/svg" xmlns:xlink="http://www.w3.org/1999/xlink" viewBox="0 0 140.59 130.74"><defs><linearGradient id="a48ec03d-f8c2-455a-9837-316761167c12" x1="37.75" y1="31.94" x2="46.52" y2="31.94" gradientUnits="userSpaceOnUse"><stop offset="0" stop-color="#00f282"/><stop offset="1" stop-color="#00ba8f"/></linearGradient><linearGradient id="a2b9b369-f5a6-4cf9-83a2-1df3e430c05d" x1="32.13" y1="19.12" x2="132.03" y2="19.12" xlink:href="#a48ec03d-f8c2-455a-9837-316761167c12"/><linearGradient id="aca5a2a2-e167-4465-9a19-a0e180e025f0" x1="58.87" y1="78.4" x2="131.86" y2="78.4" xlink:href="#a48ec03d-f8c2-455a-9837-316761167c12"/></defs><title>invenstment</title><g id="a906a44d-ec99-4f8a-b60a-774a60c2f796" data-name="Layer 2"><g id="b0073613-3d55-468b-9856-4c6465fc16d2" data-name="Layer 1"><rect x="37.75" y="26.66" width="8.77" height="10.56" opacity="0.2" fill="url(#a48ec03d-f8c2-455a-9837-316761167c12)"/><polygon points="32.13 23.5 32.13 14.74 132.03 23.5 32.13 23.5" opacity="0.2" fill="url(#a2b9b369-f5a6-4cf9-83a2-1df3e430c05d)"/><polygon points="131.86 89.59 58.87 67.22 58.87 89.59 131.86 89.59" opacity="0.2" fill="url(#aca5a2a2-e167-4465-9a19-a0e180e025f0)"/><path d="M70.29,105.84c-6.87,0-13.8.33-20.61.94V26.66h12v7.4H57.3a1.48,1.48,0,0,0-1.58,1.58V91.17a1.48,1.48,0,0,0,1.58,1.58h76.14A1.49,1.49,0,0,0,135,91.17V35.64a1.49,1.49,0,0,0-1.58-1.58h-5.75v-7.4h5.92a1.48,1.48,0,0,0,1.58-1.58V13.16a1.48,1.48,0,0,0-1.58-1.58H49.68v-10A1.48,1.48,0,0,0,48.1,0H36.17A1.47,1.47,0,0,0,34.6,1.57v10H30.38a1.48,1.48,0,0,0-1.58,1.58V25.08a1.48,1.48,0,0,0,1.58,1.58H34.6v81.79c-10.06,1-24.3,5.16-34.6,8.52l.93,2.85c8.25-2.69,23.34-7.27,33.67-8.36v17.7a1.47,1.47,0,0,0,1.57,1.58H48.1a1.48,1.48,0,0,0,1.58-1.58V109.79c6.81-.62,13.74-1,20.61-1a223.24,223.24,0,0,1,69.36,11l.94-2.85A226.27,226.27,0,0,0,70.29,105.84Zm61.57-68.62V89.59h-73V37.22ZM65,34.06v-7.4h59.52v7.4ZM37.75,3.15h8.77v8.43H37.75Zm8.77,124.43H37.75V26.66h8.77ZM32.13,23.5V14.74H132V23.5Z" fill="#22364c"/><rect x="65.48" y="81.08" width="60.27" height="1" fill="#22364c"/><rect x="65.48" y="74.08" width="60.27" height="1" fill="#22364c"/><rect x="65.48" y="67.08" width="60.27" height="1" fill="#22364c"/><path d="M75.69,55h2l2.87,5.68h3.84L80.92,54.5a4.81,4.81,0,0,0,1.87-1.79,5.49,5.49,0,0,0,.32-4.51,4.07,4.07,0,0,0-1-1.54,4.74,4.74,0,0,0-1.7-1A6.6,6.6,0,0,0,78,45.24H72.28V60.69h3.41Zm0-6.9h2.15a1.92,1.92,0,0,1,2.09,2.06,2,2,0,0,1-.56,1.46,2,2,0,0,1-1.53.58H75.69Z" fill="#22364c"/><path d="M86.71,59.44a5.4,5.4,0,0,0,1.88,1.19,7,7,0,0,0,2.5.43,8,8,0,0,0,1.86-.2,8.56,8.56,0,0,0,1.4-.45,5.24,5.24,0,0,0,1-.52,6.26,6.26,0,0,1,.56-.38L94.5,57.4a8.28,8.28,0,0,1-1.18.66,5,5,0,0,1-2.11.38,3,3,0,0,1-2.07-.66,2.09,2.09,0,0,1-.78-1.54H96.1v-.56a8.65,8.65,0,0,0-.35-2.51,5.52,5.52,0,0,0-1-2A4.62,4.62,0,0,0,93,49.92a5.43,5.43,0,0,0-2.32-.47,5.59,5.59,0,0,0-2.36.48,5.24,5.24,0,0,0-1.76,1.26A5.34,5.34,0,0,0,85.5,53a6.47,6.47,0,0,0-.38,2.19,6.62,6.62,0,0,0,.4,2.37A5,5,0,0,0,86.71,59.44Zm1.8-6a2.18,2.18,0,0,1,.44-.66,2.42,2.42,0,0,1,.73-.5,2.54,2.54,0,0,1,1-.19,2.35,2.35,0,0,1,1,.19,2.12,2.12,0,0,1,.69.5,2,2,0,0,1,.42.66,2,2,0,0,1,.14.71H88.36A1.85,1.85,0,0,1,88.51,53.4Z" fill="#22364c"/><path d="M101.33,54.85a3.06,3.06,0,0,1,.14-.92,2.5,2.5,0,0,1,.42-.75,2.24,2.24,0,0,1,.69-.52,2.32,2.32,0,0,1,1-.2,1.55,1.55,0,0,1,1.26.54,2.13,2.13,0,0,1,.45,1.43v6.26h3.34V54a4.51,4.51,0,0,0-1.1-3.29,4,4,0,0,0-3-1.11,4.41,4.41,0,0,0-1.82.39,3.83,3.83,0,0,0-1.4,1l-.09-1.18H98V60.69h3.31Z" fill="#22364c"/><path d="M111.83,56.54a7.53,7.53,0,0,0,.21,1.85,3.53,3.53,0,0,0,.69,1.43,3.33,3.33,0,0,0,1.27.92,4.9,4.9,0,0,0,2,.34,5.41,5.41,0,0,0,3.43-1.25l-1.34-2a4.43,4.43,0,0,1-.7.41,2.16,2.16,0,0,1-.88.17,1.11,1.11,0,0,1-1-.43,2,2,0,0,1-.32-1.21V52.44H118V49.82h-2.81V46.26h-3.33v3.56h-1.72v2.62h1.72Z" fill="#22364c"/></g></g></svg>