<svg xmlns="http://www.w3.org/2000/svg" xmlns:xlink="http://www.w3.org/1999/xlink" viewBox="0 0 169.05 76.79"><defs><linearGradient id="ebad6817-04e5-4c0e-b695-93aa46dc3029" x1="20.07" y1="37.13" x2="87.13" y2="37.13" gradientUnits="userSpaceOnUse"><stop offset="0" stop-color="#00f282"/><stop offset="1" stop-color="#00ba8f"/></linearGradient><linearGradient id="b7fe10ae-02a3-46e0-b25e-211a40413b81" x1="90.74" y1="44.12" x2="105.21" y2="44.12" xlink:href="#ebad6817-04e5-4c0e-b695-93aa46dc3029"/></defs><title>mobile</title><g id="ace60a24-1d88-49ad-a317-7f91b38571e3" data-name="Layer 2"><g id="ac3d7c5d-5228-42f3-8e94-7261afdf01e5" data-name="Layer 1"><polygon points="20.07 10.18 87.13 64.09 20.07 64.09 20.07 10.18" opacity="0.2" fill="url(#ebad6817-04e5-4c0e-b695-93aa46dc3029)"/><path d="M56.07,58.62a7.28,7.28,0,1,0,7.28,7.28A7.28,7.28,0,0,0,56.07,58.62Zm0,11.28a4,4,0,1,1,4-4A4,4,0,0,1,56.07,69.9Z" fill="none"/><rect x="90.74" y="24.15" width="14.47" height="39.94" fill="none"/><rect x="99.78" y="4.43" width="10.36" height="2.14" fill="none"/><path d="M143,35.9V24.15H125.26V40.26h29.3l-.09-.31a76.11,76.11,0,0,0-3.26-9.61l-.48-1.14v6.7a1.4,1.4,0,0,1-1.39,1.4h-4.93A1.4,1.4,0,0,1,143,35.9Z" fill="none"/><rect x="145.8" y="25.79" width="2.14" height="8.72" fill="none"/><path d="M133.31,58.62a7.28,7.28,0,1,0,7.28,7.28A7.29,7.29,0,0,0,133.31,58.62Zm0,11.28a4,4,0,1,1,4-4A4,4,0,0,1,133.31,69.9Z" fill="none"/><rect x="28.29" y="24.15" width="12.83" height="13.65" fill="none"/><rect x="57.05" y="24.15" width="20.22" height="13.65" fill="none"/><path d="M155.44,43.87h-32a1.81,1.81,0,0,1-1.8-1.8V22.34a1.81,1.81,0,0,1,1.8-1.8h22.34l-.3-.4c-5-6.61-11.17-10-18.34-10H20.07V64.09H45.33l0-.2a10.88,10.88,0,0,1,21.39,0l0,.2H87.13V22.34a1.81,1.81,0,0,1,1.81-1.8H107a1.81,1.81,0,0,1,1.8,1.8V64.09h13.76l0-.2a10.88,10.88,0,0,1,21.39,0l0,.2h11.24c1.65,0,1.69-2.89,1.69-2.92V52.83a82.89,82.89,0,0,0-1.49-8.76ZM44.72,39.6a1.81,1.81,0,0,1-1.8,1.81H26.48a1.81,1.81,0,0,1-1.8-1.81V22.34a1.81,1.81,0,0,1,1.8-1.8H42.92a1.81,1.81,0,0,1,1.8,1.8Zm36.16,0a1.81,1.81,0,0,1-1.8,1.81H55.25a1.81,1.81,0,0,1-1.81-1.81V22.34a1.81,1.81,0,0,1,1.81-1.8H79.08a1.81,1.81,0,0,1,1.8,1.8Z" fill="none"/><path d="M169.05,65c-2.81-1.17-5.64-2.27-8.47-3.32,0-.16,0-.31,0-.46V52.75a1,1,0,0,0,0-.17c-.17-1.88-4.59-46-33.43-46H114.57V2.21A2.21,2.21,0,0,0,112.36,0H97.57a2.21,2.21,0,0,0-2.22,2.21V6.57H18.27a1.81,1.81,0,0,0-1.81,1.81V59C10.91,60.87,5.42,62.9,0,65.18L1.16,68c5-2.12,10.15-4,15.3-5.75v3.7a1.81,1.81,0,0,0,1.81,1.8H45.33l0,.21a10.88,10.88,0,0,0,21.39,0l0-.21h55.78l0,.21a10.88,10.88,0,0,0,21.39,0l0-.21h11.24a4.89,4.89,0,0,0,4.6-3.12q4,1.48,8,3.13ZM150.73,35.9V29.2l.48,1.14A76.11,76.11,0,0,1,154.47,40l.09.31h-29.3V24.15H143V35.9a1.4,1.4,0,0,0,1.4,1.4h4.93A1.4,1.4,0,0,0,150.73,35.9ZM145.8,25.79h2.14v8.72H145.8Zm-46-21.36h10.36V6.57H99.78ZM56.07,73.18a7.28,7.28,0,1,1,7.28-7.28A7.29,7.29,0,0,1,56.07,73.18Zm49.14-9.09H90.74V24.15h14.47Zm28.1,9.09a7.28,7.28,0,1,1,7.28-7.28A7.29,7.29,0,0,1,133.31,73.18Zm23.67-12s0,2.92-1.69,2.92H144.05l0-.2a10.88,10.88,0,0,0-21.39,0l0,.2H108.82V22.34a1.81,1.81,0,0,0-1.8-1.8H88.94a1.81,1.81,0,0,0-1.81,1.8V64.09H66.8l0-.2a10.88,10.88,0,0,0-21.39,0l0,.2H20.07V10.18H127.15c7.17,0,13.34,3.35,18.34,10l.3.4H123.45a1.81,1.81,0,0,0-1.8,1.8V42.07a1.81,1.81,0,0,0,1.8,1.8h32l.05.2A82.89,82.89,0,0,1,157,52.83Z" fill="#22364c"/><path d="M133.31,61.89a4,4,0,1,0,4,4A4,4,0,0,0,133.31,61.89Z" fill="#22364c"/><path d="M79.08,20.54H55.25a1.81,1.81,0,0,0-1.81,1.8V39.6a1.81,1.81,0,0,0,1.81,1.81H79.08a1.81,1.81,0,0,0,1.8-1.81V22.34A1.81,1.81,0,0,0,79.08,20.54ZM77.27,37.8H57.05V24.15H77.27Z" fill="#22364c"/><path d="M56.07,61.89a4,4,0,1,0,4,4A4,4,0,0,0,56.07,61.89Z" fill="#22364c"/><path d="M42.92,20.54H26.48a1.81,1.81,0,0,0-1.8,1.8V39.6a1.81,1.81,0,0,0,1.8,1.81H42.92a1.81,1.81,0,0,0,1.8-1.81V22.34A1.81,1.81,0,0,0,42.92,20.54ZM41.12,37.8H28.29V24.15H41.12Z" fill="#22364c"/><rect x="90.74" y="24.15" width="14.47" height="39.94" opacity="0.2" fill="url(#b7fe10ae-02a3-46e0-b25e-211a40413b81)"/></g></g></svg>