<svg xmlns="http://www.w3.org/2000/svg" xmlns:xlink="http://www.w3.org/1999/xlink" viewBox="0 0 169.04 107.02"><defs><linearGradient id="b8cf4745-e60c-4c7c-b74d-9e796e785db5" x1="44.63" y1="26.71" x2="127.4" y2="26.71" gradientUnits="userSpaceOnUse"><stop offset="0" stop-color="#00f282"/><stop offset="1" stop-color="#00ba8f"/></linearGradient><linearGradient id="e4a477ec-ce67-4b85-9bd4-63e1db478a08" x1="53.32" y1="64.91" x2="87.63" y2="64.91" xlink:href="#b8cf4745-e60c-4c7c-b74d-9e796e785db5"/><linearGradient id="b06647d5-64c7-4d95-bd57-f117608d9be2" x1="57.78" y1="100.96" x2="78.58" y2="100.96" xlink:href="#b8cf4745-e60c-4c7c-b74d-9e796e785db5"/><linearGradient id="a5c2adab-607b-483a-9e43-55c4d845336e" x1="36.27" y1="11.89" x2="135.76" y2="11.89" xlink:href="#b8cf4745-e60c-4c7c-b74d-9e796e785db5"/></defs><title>multi</title><g id="a7b7496b-442f-4158-b87c-49a6616f8010" data-name="Layer 2"><g id="f0abae57-4846-44eb-ad42-aaf651e60e06" data-name="Layer 1"><rect x="44.63" y="23.79" width="82.76" height="5.85" opacity="0.2" fill="url(#b8cf4745-e60c-4c7c-b74d-9e796e785db5)"/><path d="M53.32,61l7.11,7.11a2.8,2.8,0,0,0,2,.82H84.81a2.81,2.81,0,0,0,2.07-4.71l-3-3.22Z" opacity="0.2" fill="url(#e4a477ec-ce67-4b85-9bd4-63e1db478a08)"/><rect x="57.78" y="98.11" width="20.8" height="5.71" opacity="0.2" fill="url(#b06647d5-64c7-4d95-bd57-f117608d9be2)"/><polygon points="36.27 20.58 119.28 14.89 119.31 3.21 135.76 20.58 36.27 20.58" opacity="0.2" fill="url(#a5c2adab-607b-483a-9e43-55c4d845336e)"/><rect x="60.75" y="92.16" width="14.86" height="2.97" fill="none"/><polygon points="54.8 57.97 57.78 57.97 57.78 50.54 57.78 49.05 54.8 49.05 54.8 57.97" fill="none"/><rect x="66.7" y="49.05" width="2.96" height="8.92" fill="none"/><rect x="72.64" y="49.05" width="2.97" height="8.92" fill="none"/><rect x="60.75" y="49.05" width="2.97" height="8.92" fill="none"/><polygon points="129.46 20.58 135.76 20.58 119.31 3.21 52.72 3.21 36.27 20.58 42.57 20.58 129.46 20.58" fill="none"/><path d="M72.64,73.46q-4.48.26-8.92.67V89.18h8.92Z" fill="none"/><rect x="57.78" y="98.11" width="20.8" height="5.71" fill="none"/><polygon points="78.58 50.54 78.58 57.97 81.56 57.97 81.56 49.05 78.58 49.05 78.58 50.54" fill="none"/><path d="M169,86.94a216,216,0,0,0-38.43-12V23.79h5.94a3,3,0,0,0,2.1-5.08L121.24,1.29l-.42-.42A3,3,0,0,0,118.71,0H53.32a3,3,0,0,0-2.11.88l-.41.41L33.38,18.71a3,3,0,0,0,2.1,5.08h5.94V74.41A217.36,217.36,0,0,0,0,87.17l1.16,2.77A214,214,0,0,1,41.42,77.47V104a3,3,0,0,0,3,3h83.23a3,3,0,0,0,3-3V78A213.71,213.71,0,0,1,167.89,89.7ZM36.27,20.58,52.72,3.21h66.59l16.45,17.37H36.27Zm21.51,83.23v-5.7h20.8v5.7Zm5.94-29.68q4.44-.42,8.92-.67V89.18H63.72Zm11.89,18v3H60.75v-3Zm51.79,11.65H81.56V96.62a1.49,1.49,0,0,0-1.49-1.49H78.58V90.67a1.49,1.49,0,0,0-1.48-1.49H75.61V71.34a1.49,1.49,0,0,0-1.49-1.48H62.24a1.49,1.49,0,0,0-1.49,1.48V89.18H59.26a1.49,1.49,0,0,0-1.48,1.49v4.46H56.29a1.49,1.49,0,0,0-1.49,1.49v7.19H44.63v-80H127.4Z" fill="#22364c"/><path d="M114.25,71.34a1.48,1.48,0,0,0-1.48-1.48H94.94a1.49,1.49,0,0,0-1.49,1.48V89.18a1.49,1.49,0,0,0,1.49,1.49h17.83a1.48,1.48,0,0,0,1.48-1.49Zm-3,16.36H96.42V72.83h14.86Z" fill="#22364c"/><path d="M94.94,52h17.83a1.49,1.49,0,0,0,1.48-1.49V32.7a1.49,1.49,0,0,0-1.48-1.49H94.94a1.49,1.49,0,0,0-1.49,1.49V50.54A1.49,1.49,0,0,0,94.94,52Zm1.48-17.84h14.86V49.05H96.42Z" fill="#22364c"/><path d="M84.53,59.46V47.57A1.49,1.49,0,0,0,83,46.08H78.58V32.7a1.49,1.49,0,0,0-1.48-1.49H59.26a1.49,1.49,0,0,0-1.48,1.49V46.08H53.32a1.49,1.49,0,0,0-1.49,1.49V59.46A1.49,1.49,0,0,0,53.32,61H83A1.49,1.49,0,0,0,84.53,59.46ZM57.78,50.54V58h-3V49.05h3ZM63.72,58h-3V49.05h3Zm5.94,0h-3V49.05h3Zm6,0h-3V49.05h3Zm0-11.89H60.75V34.19H75.61Zm6,11.89h-3V49.05h3Z" fill="#22364c"/></g></g></svg>