<svg xmlns="http://www.w3.org/2000/svg" xmlns:xlink="http://www.w3.org/1999/xlink" viewBox="0 0 157.83 96.1"><defs><linearGradient id="b62ae337-dcef-4edb-b697-3f4b6c80c572" x1="46.36" y1="36.99" x2="112.51" y2="36.99" gradientUnits="userSpaceOnUse"><stop offset="0" stop-color="#00f282"/><stop offset="1" stop-color="#00ba8f"/></linearGradient><linearGradient id="ec3b365a-3a9b-4b39-9d50-9104f4e015ab" x1="94.43" y1="13.17" x2="107.46" y2="13.17" xlink:href="#b62ae337-dcef-4edb-b697-3f4b6c80c572"/><linearGradient id="b9c645bf-cbe5-4854-a9c7-a811f8a68b94" x1="50.87" y1="70.48" x2="84.18" y2="70.48" xlink:href="#b62ae337-dcef-4edb-b697-3f4b6c80c572"/><linearGradient id="a4e6410d-1656-417a-969d-7b1f5ed8d043" x1="46.36" y1="83.63" x2="87.43" y2="83.63" xlink:href="#b62ae337-dcef-4edb-b697-3f4b6c80c572"/><linearGradient id="e58f227b-4d76-4d32-aa3e-8afe49766006" x1="106.45" y1="83.63" x2="111.47" y2="83.63" xlink:href="#b62ae337-dcef-4edb-b697-3f4b6c80c572"/></defs><title>Primary</title><g id="b4153c10-7577-40ea-8819-5b4fd4136642" data-name="Layer 2"><g id="bd2f5ce4-56e0-4995-a63d-611c268b0bfd" data-name="Layer 1"><polygon points="46.36 42.81 78.91 23.28 111.47 42.81 112.51 50.7 78.92 30.79 46.36 48.05 46.36 42.81" opacity="0.2" fill="url(#b62ae337-dcef-4edb-b697-3f4b6c80c572)"/><rect x="94.43" y="11.01" width="13.03" height="4.31" opacity="0.2" fill="url(#ec3b365a-3a9b-4b39-9d50-9104f4e015ab)"/><path d="M50.87,69.1l2.84,2.71a2.27,2.27,0,0,0,1.59.64H81.88a2.3,2.3,0,0,0,1.62-3.93h0Z" opacity="0.2" fill="url(#b9c645bf-cbe5-4854-a9c7-a811f8a68b94)"/><rect x="46.36" y="81.12" width="41.07" height="5.02" opacity="0.2" fill="url(#a4e6410d-1656-417a-969d-7b1f5ed8d043)"/><rect x="106.45" y="81.12" width="5.02" height="5.02" opacity="0.2" fill="url(#e58f227b-4d76-4d32-aa3e-8afe49766006)"/><path d="M138.5,86v-18a2.45,2.45,0,0,0-.42-1.39l-3-4.49a2.51,2.51,0,0,0-4.18,0L129,64.9,127.08,62a2.52,2.52,0,0,0-4.19,0L121,64.9,119.06,62A2.49,2.49,0,0,0,117,60.91,2.52,2.52,0,0,0,114.88,62l-.41.62v-18l2.2,1.32a2.49,2.49,0,0,0,1.29.36A2.57,2.57,0,0,0,119.2,46a2.53,2.53,0,0,0,1.28-2.19V36.13A2.53,2.53,0,0,0,119.26,34l-9-5.37a2.41,2.41,0,0,0,.15-.85V11H112a2.52,2.52,0,0,0,2.52-2.51v-6A2.52,2.52,0,0,0,112,0h-22a2.52,2.52,0,0,0-2.51,2.51v6A2.52,2.52,0,0,0,89.94,11h1.49v6.26L80.21,10.54a2.51,2.51,0,0,0-2.59,0L38.57,34a2.53,2.53,0,0,0-1.22,2.16v7.65A2.54,2.54,0,0,0,38.62,46a2.52,2.52,0,0,0,2.53,0l2.21-1.33V62.66L42.94,62a2.51,2.51,0,0,0-4.18,0l-1.91,2.88L34.93,62a2.51,2.51,0,0,0-4.18,0L28.83,64.9,26.92,62a2.52,2.52,0,0,0-4.19,0l-3,4.48a2.58,2.58,0,0,0-.42,1.4V86A192,192,0,0,0,0,93.36L1.22,96.1a190.52,190.52,0,0,1,19.25-7.37,2.47,2.47,0,0,0,1.36.41h6a2.44,2.44,0,0,0,1-.22,2.49,2.49,0,0,0,1,.22h6a2.53,2.53,0,0,0,1-.22,2.29,2.29,0,0,0,1,.22h6a2.45,2.45,0,0,0,1-.22,2.44,2.44,0,0,0,1,.22H112a2.49,2.49,0,0,0,1-.22,2.29,2.29,0,0,0,1,.22h6a2.44,2.44,0,0,0,1-.22,2.44,2.44,0,0,0,1,.22h6a2.44,2.44,0,0,0,1-.22,2.49,2.49,0,0,0,1,.22h6a2.48,2.48,0,0,0,1.37-.41,191.44,191.44,0,0,1,19.25,7.37l1.22-2.74A192.17,192.17,0,0,0,138.5,86Zm-111.17.19h-5V68.06l2.5-3.76,2.51,3.76Zm8,0h-5V68.06l2.51-3.76,2.5,3.76Zm8-6.52v6.52h-5V68.06l2.51-3.76,2.51,3.76ZM90.43,8V3h21V8h-21Zm17,3V26.89l-13-7.81h0V11Zm-20,75.13H46.36v-5H87.43Zm16-6.52v6.52h-13V57.08h13Zm8,6.52h-5v-5h5Zm0-18.23V78.12h-5V56.6a2.51,2.51,0,0,0-2.51-2.52h-14a2.52,2.52,0,0,0-2.51,2.52V78.12H46.36V42.81L78.91,23.28l32.56,19.53Zm1.8-27.51s0,0,0,0l-33-19.82a2.51,2.51,0,0,0-2.59,0l-.25.15L44.57,40.38a.24.24,0,0,0-.08.06l-4.14,2.48V36.4L78.91,13.26l13.74,8.25h0l14,8.4.09.05,10.74,6.44v6.52Zm6.21,45.74h-5V68.06L117,64.3l2.51,3.76Zm8,0h-5V68.06L125,64.3l2.5,3.76Zm8,0h-5V68.06L133,64.3l2.5,3.76Z" fill="#22364c"/><path d="M96.94,73.11h2a1.5,1.5,0,0,0,0-3h-2a1.5,1.5,0,0,0,0,3Z" fill="#22364c"/><path d="M53.88,46.07a2.52,2.52,0,0,0-2.51,2.52V66.1h-.5a1.5,1.5,0,0,0,0,3H82.92a1.5,1.5,0,0,0,0-3h-.51V48.59a2.51,2.51,0,0,0-2.51-2.52h-26Zm11.51,20h-11v-7h11Zm0-10h-11v-7h11Zm3-7h11v7h-11Zm0,10h11v7h-11Z" fill="#22364c"/></g></g></svg>