<svg xmlns="http://www.w3.org/2000/svg" xmlns:xlink="http://www.w3.org/1999/xlink" viewBox="0 0 154.37 103.79"><defs><linearGradient id="a45bbd9e-ec8b-4ae7-b58d-ef6291a19bd0" x1="59.32" y1="51.13" x2="118.97" y2="51.13" gradientUnits="userSpaceOnUse"><stop offset="0" stop-color="#00f282"/><stop offset="1" stop-color="#00ba8f"/></linearGradient><linearGradient id="be4ca613-93af-4c37-a0ab-a5a1edccebec" x1="79.8" y1="78.84" x2="97.67" y2="78.84" xlink:href="#a45bbd9e-ec8b-4ae7-b58d-ef6291a19bd0"/><linearGradient id="ea1bfe59-1ae2-4862-84cd-21073be92132" x1="58.02" y1="28.48" x2="89.86" y2="28.48" xlink:href="#a45bbd9e-ec8b-4ae7-b58d-ef6291a19bd0"/></defs><title>secondary</title><g id="b8ad8bab-eabe-4715-b689-17b46d7cb5ac" data-name="Layer 2"><g id="b5a15acb-1a90-47f6-9b00-34e871a12ff3" data-name="Layer 1"><rect x="59.32" y="47.65" width="59.64" height="6.96" opacity="0.2" fill="url(#a45bbd9e-ec8b-4ae7-b58d-ef6291a19bd0)"/><rect x="79.8" y="65.87" width="17.87" height="25.94" opacity="0.2" fill="url(#be4ca613-93af-4c37-a0ab-a5a1edccebec)"/><polygon points="58.02 45.05 89.86 11.9 84.59 37.78 58.02 45.05" opacity="0.2" fill="url(#ea1bfe59-1ae2-4862-84cd-21073be92132)"/><path d="M154.37,101.14a158.16,158.16,0,0,0-33.62-13.85v3.12a155.1,155.1,0,0,1,32.17,13.35Z" fill="#22364c"/><path d="M120.74,51a1.3,1.3,0,0,0-2.6,0V90.5H100.27V64.57a1.3,1.3,0,0,0-1.3-1.3H78.5a1.31,1.31,0,0,0-1.31,1.3V90.5H59.32V47.65h66.89a1.28,1.28,0,0,0,1.16-.78,1.3,1.3,0,0,0-.25-1.43L90.68,9.09a1.25,1.25,0,0,0-1.81,0L73,25.11V16.85a1.3,1.3,0,0,0-1.3-1.3H62.62a1.3,1.3,0,0,0-1.3,1.3V34.47l-11,11a1.28,1.28,0,0,0,1.81,1.82L63.53,36a1.3,1.3,0,0,0,.39-.91V18.16h6.51V28.22a1.27,1.27,0,0,0,.78,1.16,1.3,1.3,0,0,0,1.43-.25L89.86,11.9l33.23,33.15H58a1.3,1.3,0,0,0-1.3,1.3V82.23A149.63,149.63,0,0,0,38.36,86l-.12-2.47-.4-12.4-.2-15.8-.4-10.9-.5-16.3V25.5l-.2-1.2V22.6h.2l.1,1.1.7-.1v.3l-.3,1.4.5,1.5.8-.1.3,2.6.9,1.7h.1l.3-1.9V27.7l.7-.4.4-1.5-1.9-2.1.1-.1,1-.4v-.3L38,20.3l.6-.5-.8-1.1.1-.1,2,.9.3-.6.5.8L43,22.1l.6-.4.1.1.4,2.3.5.9.6-.3.1.1.4,2.6,2,2.4h.2L48,27l-.4-3.6.7-.3-1.1-1.9-1.8-1.7.5-.8-3.4-1.3.3-.5-.1-.1L39,16.7v-.4l.3-.3,1.3-.3.6-.2-.4-.5v-.3l2,.3h.6l1.6.5.1-.8,2.3,1.5.9.8.4-.6.8,1.6,1.8,1.7.6-2.4L51,15.4l.5-.6-3.4-1.3.1-1-.9.1h-1.7v-.8l-3.1.9-.4-.8-2.4,1.3h-.4l-.3-.4,1.1-1.4,1.1-.9-.4-.2-.3-.3,2.9-1.2,1-.9-.5-.5,2.5-1.8L46,5.3l1.9-1.9,1-1.9h-2.3l-1.9.9-2.2,2.3-.7-.5-.3.3-1.8,3.4-.3-.1H39l-.8,2.3-.8,1.8-.8,1.2v.3l-.3.4-.1-.1.8-4-.6-.2.8-4.6-.5.2h-.4l.1-2L36,2.6l-.3-.8-.9-.6v.7l-2-1.8-.9-.1-4.3.6,2,.9,1.2.4.9.4-.7.5,1,1,2.7,1.6-1.1.4.3.4.2,1,1.1,2.1-.1.1-.8-.1-.1,2.8H34l-1.4-2.3-.7.5-1-1.7-.5-.8L28.14,7l-1.7-.3V7.9l-2.5-1L20.84,9l-1.7,1.5,3.1.7,2.6-.3h1.6l-.3.6,4.4.6.1.2-.2.5v.3l.7.5,1.2,1.5-.1.1L29.84,14l-.6-.4-.1.1.2.7-.2.2-2.3-.5-4.2,1.2-.1.2.6.6-.1.1-1.7.6-.9.8-.9,4.1h.1l1-.7,2.7-2.3,1-.6.3,1,1-.4,2.2-1.5.3.6h.1l.9-.5h1l1.2-.3,1.7.5v.1l-1.9.1-.5.4.4.1.3.3-.1.1-2.4,1.1-1.1.8-1,1.8.7.5-1.5,2.5v.9l.7,3.1,2.9-3.3.2-.5.8-2.2.6.5h.2l.8-1,.4-2.2.3-.2.5.7,1-1.1.1.1-.1,3.5.2,15.1.2,10,.2,26.6.23,11.55A171.91,171.91,0,0,0,0,101.17l1.45,2.62A169.36,169.36,0,0,1,35.24,90v0l3.3-.4,0-.57a147.35,147.35,0,0,1,18.21-3.77v6.55a1.31,1.31,0,0,0,1.3,1.3H78.5a1.31,1.31,0,0,0,1.3-1.3V65.87H97.67V91.81a1.3,1.3,0,0,0,1.3,1.3h20.47a1.23,1.23,0,0,0,1.3-1.22Z" fill="#22364c"/><rect x="63.34" y="39.8" width="50.33" height="1" fill="#22364c"/><rect x="70.91" y="34.82" width="35.2" height="1" fill="#22364c"/></g></g></svg>